<?xml version="1.0" standalone="no"?>
<!DOCTYPE svg PUBLIC "-//W3C//DTD SVG 1.1//EN" "http://www.w3.org/Graphics/SVG/1.1/DTD/svg11.dtd" >
<svg xmlns="http://www.w3.org/2000/svg" xmlns:xlink="http://www.w3.org/1999/xlink" version="1.1">
<metadata></metadata>
<defs>
<font id="moonhouseregular" horiz-adv-x="1705" >
<font-face units-per-em="2048" ascent="1536" descent="-512" />
<missing-glyph horiz-adv-x="1024" />
<glyph horiz-adv-x="0" />
<glyph unicode="&#xd;" horiz-adv-x="1738" d="M0 0v723q0 84 31.5 157.5t86 129t128 87t157.5 31.5h783q84 0 157.5 -31.5t128 -87t86 -129t31.5 -157.5v-723h-246v270h-1097v-270h-246zM246 518h1097v205q0 66 -46 112t-111 46h-783q-66 0 -111.5 -46.5t-45.5 -111.5v-205z" />
<glyph unicode=" "  horiz-adv-x="1024" />
<glyph unicode="&#x09;" horiz-adv-x="1024" />
<glyph unicode="&#xa0;" horiz-adv-x="1024" />
<glyph unicode="!" horiz-adv-x="403" d="M0 0v246h246v-246h-246zM0 319v807h246v-807h-246z" />
<glyph unicode="&#x22;" horiz-adv-x="831" d="M0 575v246q0 70 26.5 132.5t73.5 109.5t108.5 73.5t133.5 26.5v-104q-29 0 -47.5 -32t-29.5 -80t-15 -106.5t-5 -111.5t0 -95t1 -59h-246zM332 575v246q0 70 26.5 132.5t72.5 109.5t108.5 73.5t134.5 26.5v-104q-29 0 -47.5 -32t-29.5 -80t-15 -106.5t-5.5 -111.5t0 -95 t1.5 -59h-246z" />
<glyph unicode="#" horiz-adv-x="1259" d="M0 188v248h188v254h-188v248h188v188h248v-188h254v188h248v-188h188v-248h-188v-254h188v-248h-188v-188h-248v188h-254v-188h-248v188h-188zM436 436h254v254h-254v-254z" />
<glyph unicode="$" horiz-adv-x="1814" d="M0 326h260q20 -35 56 -57.5t79 -22.5h396v192h-431q-72 0 -134 27t-109 74t-74 108.5t-27 132.5q0 72 27 134.5t74 108.5t109.5 72.5t133.5 26.5h431v127h122v-127h418q72 0 138.5 -24.5t118.5 -67.5t89 -103.5t52 -129.5h-261q-20 35 -56 57.5t-81 22.5h-418v-193h473 q70 0 132.5 -26.5t109.5 -73.5t74 -109.5t27 -132.5q0 -72 -27 -133.5t-74 -108.5t-109.5 -73.5t-132.5 -26.5h-473v-127h-122v127h-396q-72 0 -137 24.5t-118.5 67.5t-89.5 102.5t-50 131.5zM264 780q0 -41 27.5 -68.5t68.5 -27.5h431v193h-431q0 2 -15 -0.5t-32.5 -13.5 t-33 -30.5t-15.5 -52.5zM913 246h473q39 0 67 27.5t28 68.5t-28 68.5t-67 27.5h-473v-192z" />
<glyph unicode="%" horiz-adv-x="1607" d="M0 0l1126 1126h344l-641 -641l-485 -485h-344zM39 950q0 84 58.5 142.5t142.5 58.5t141 -58.5t57 -142.5t-57 -142t-141 -58t-142.5 58t-58.5 142zM1040 184q0 84 58.5 142.5t142.5 58.5t142.5 -58.5t58.5 -142.5t-58.5 -142t-142.5 -58t-142.5 58t-58.5 142z" />
<glyph unicode="&#x26;" horiz-adv-x="1759" d="M0 342q0 63 20.5 118.5t57.5 100.5q-37 45 -57.5 100.5t-20.5 118.5q0 70 26.5 132.5t73.5 109.5t108.5 73.5t133.5 26.5h522v-245h-522q-41 0 -68.5 -28t-27.5 -69t27.5 -68.5t68.5 -27.5q328 -2 651.5 -2h651.5v-244h-103v-96q0 -72 -26.5 -133.5t-73.5 -108.5 t-109.5 -73.5t-132.5 -26.5h-858q-72 0 -133.5 26.5t-108.5 73.5t-73.5 108.5t-26.5 133.5zM246 342q0 -41 27.5 -68.5t68.5 -27.5h858q41 0 68.5 27.5t27.5 68.5v96h-954q-41 0 -68.5 -27.5t-27.5 -68.5z" />
<glyph unicode="'" horiz-adv-x="491" d="M0 575v246q0 70 26.5 132.5t73.5 109.5t108.5 73.5t133.5 26.5v-104q-29 0 -47.5 -32t-29.5 -80t-15 -106.5t-5 -111.5t0 -95t1 -59h-246z" />
<glyph unicode="(" horiz-adv-x="491" d="M0 0v807q0 72 26.5 134.5t73.5 109.5t108.5 73.5t133.5 26.5v-104q-29 0 -47.5 -32t-29.5 -80t-15 -106.5t-5 -112.5t0 -96t1 -59v-315q0 -16 -1 -58.5t0 -95.5t5 -111.5t15 -106.5t29.5 -80t47.5 -32v-104q-72 0 -133.5 26.5t-108.5 72.5t-73.5 108.5t-26.5 134.5z" />
<glyph unicode=")" horiz-adv-x="450" d="M0 -238q29 0 47.5 32t29.5 80t15 106.5t5 111.5t0 95t-1 59v315q0 16 1 58.5t0 96.5t-5 112.5t-15 106.5t-29.5 80t-47.5 32v104q70 0 132.5 -26.5t109.5 -73.5t73.5 -109.5t26.5 -134.5v-807q0 -72 -26.5 -134.5t-73.5 -108.5t-109.5 -72.5t-132.5 -26.5v104z" />
<glyph unicode="*" horiz-adv-x="751" d="M0 842q0 33 6 61h174l-123 125q16 25 38 47.5t48 38.5l123 -123v174q31 6 64 6q31 0 61 -6v-174l123 123q27 -16 48.5 -38.5t39.5 -47.5l-125 -125h176q2 -14 3 -29.5t1 -31.5t-1 -30.5t-3 -31.5h-176l125 -123q-37 -51 -88 -88l-123 125v-176q-31 -6 -61 -6q-33 0 -64 6 v176l-123 -125q-53 37 -86 88l123 123h-174q-6 31 -6 62z" />
<glyph unicode="+" horiz-adv-x="919" d="M0 281v245h281v281h245v-281h281v-245h-281v-281h-245v281h-281z" />
<glyph unicode="," horiz-adv-x="356" d="M-96 -238q29 0 47 32t29.5 80t15.5 106.5t5 111.5t0 95t-1 59h246v-246q0 -72 -26.5 -134.5t-74 -108.5t-110 -72.5t-131.5 -26.5v104z" />
<glyph unicode="-" horiz-adv-x="933" d="M0 281v245h807v-245h-807z" />
<glyph unicode="." horiz-adv-x="395" d="M0 0v246h246v-246h-246z" />
<glyph unicode="/" horiz-adv-x="1576" d="M0 0l1126 1126h344l-641 -641l-485 -485h-344z" />
<glyph unicode="0" horiz-adv-x="2035" d="M0 561q0 117 44 219.5t121 178t178 119.5t218 44h838q117 0 219 -44t178 -120.5t120 -178t44 -218.5t-44 -218t-120 -178t-178 -121t-219 -44h-838q-117 0 -218 44t-178 121t-121 178t-44 218zM246 561q0 -66 24.5 -123t67.5 -100t100.5 -67.5t122.5 -24.5h838 q66 0 123 24.5t100 67.5t67.5 100.5t24.5 122.5q0 66 -24.5 123t-67.5 100t-100.5 68t-122.5 25h-838q-66 0 -123 -25t-100 -68t-67.5 -100t-24.5 -123zM465 561q0 -41 27.5 -68.5t68.5 -27.5h838q41 0 68.5 27.5t27.5 68.5t-27.5 68.5t-68.5 27.5h-838q-41 0 -68.5 -27.5 t-27.5 -68.5z" />
<glyph unicode="1" horiz-adv-x="538" d="M0 893v246q84 0 157.5 -32t128 -86t86 -128t31.5 -158v-735h-245v735q0 66 -46 112t-112 46z" />
<glyph unicode="2" horiz-adv-x="1734" d="M0 297q0 43 13.5 85t37 78t56 64.5t73.5 42.5q10 4 19.5 6t19.5 5l1147 204q16 10 20.5 26.5t0 32t-17.5 27t-34 11.5h-1274v243h1274q113 0 186.5 -63.5t98.5 -151.5q25 -86 -2 -176t-117 -149q-31 -23 -55.5 -30t-59.5 -13l-1122 -199q-16 -10 -20 -26.5t1 -32 t18 -26.5t34 -11h1313v-244h-1313q-61 0 -115.5 23.5t-94.5 63.5t-63.5 94.5t-23.5 115.5z" />
<glyph unicode="3" horiz-adv-x="1789" d="M0 0v246h1341q41 0 69 27.5t28 68.5t-28 68.5t-69 27.5h-1341v246h1341q41 0 69 27.5t28 68.5t-28 69t-69 28h-1341v245h1341q72 0 134.5 -26.5t109.5 -73.5t74 -109.5t27 -132.5q0 -63 -21.5 -118.5t-58.5 -100.5q37 -45 58.5 -100t21.5 -119q0 -72 -27 -133.5 t-74 -108.5t-109.5 -73.5t-134.5 -26.5h-1341z" />
<glyph unicode="4" horiz-adv-x="1798" d="M3 516.5q9 24.5 32 40.5l776 543h424l-635 -445h860v445h246v-1100h-246v410h-1380q-27 0 -47.5 15t-28.5 42q-10 25 -1 49.5z" />
<glyph unicode="5" horiz-adv-x="1789" d="M0 0v246h1368q41 0 68.5 27.5t27.5 68.5t-27.5 68.5t-68.5 27.5h-1122h-80h-166v684h1585v-245h-1339v-193h1122q70 0 132.5 -26.5t109.5 -73.5t73.5 -109.5t26.5 -132.5q0 -72 -26.5 -133.5t-73.5 -108.5t-109.5 -73.5t-132.5 -26.5h-1368z" />
<glyph unicode="6" horiz-adv-x="1869" d="M0 403v316q0 84 31.5 157.5t86 128t128 86t157.5 31.5h1262v-245h-1262q-66 0 -111.5 -46.5t-45.5 -111.5v-35h1202q72 0 134.5 -26.5t109.5 -73.5t73.5 -109.5t26.5 -132.5q0 -72 -26.5 -133.5t-73.5 -108.5t-109.5 -73.5t-134.5 -26.5h-1045q-84 0 -157.5 31.5t-128 86 t-86 128t-31.5 157.5zM246 403q0 -66 46 -111.5t111 -45.5h1045q41 0 68.5 27.5t27.5 68.5t-27.5 68.5t-68.5 27.5h-1202v-35z" />
<glyph unicode="7" horiz-adv-x="1583" d="M0 881v245h1393q27 0 46 -14t28.5 -34.5t5 -45t-22.5 -43.5l-989 -989h-344l880 881h-997z" />
<glyph unicode="8" d="M0 342q0 63 20.5 118.5t57.5 100.5q-37 45 -57.5 100.5t-20.5 118.5q0 70 26.5 132.5t73.5 109.5t108.5 73.5t133.5 26.5h956q72 0 134.5 -26.5t109.5 -73.5t73.5 -109.5t26.5 -132.5q0 -63 -21 -118.5t-58 -100.5q37 -45 58 -100t21 -119q0 -72 -26.5 -133.5 t-73.5 -108.5t-109.5 -73.5t-134.5 -26.5h-956q-72 0 -133.5 26.5t-108.5 73.5t-73.5 108.5t-26.5 133.5zM246 342q0 -41 27.5 -68.5t68.5 -27.5h956q41 0 69 27.5t28 68.5t-28 68.5t-69 27.5h-956q-41 0 -68.5 -27.5t-27.5 -68.5zM246 780q0 -41 27.5 -68.5t68.5 -27.5h956 q41 0 69 27.5t28 68.5t-28 69t-69 28h-956q-41 0 -68.5 -28t-27.5 -69z" />
<glyph unicode="9" horiz-adv-x="1884" d="M0 780q0 70 26.5 132.5t73.5 109.5t108.5 73.5t133.5 26.5h1044q84 0 158 -31.5t129.5 -86t87 -128t31.5 -157.5v-316q0 -84 -31.5 -157.5t-87 -128t-129.5 -86t-158 -31.5h-1261v246h1261q66 0 112 46t46 111v35h-1202q-72 0 -133.5 27t-108.5 74t-73.5 108.5 t-26.5 132.5zM246 780q0 -41 27.5 -68.5t68.5 -27.5h1202v35q0 66 -46 112t-112 46h-1044q-41 0 -68.5 -28t-27.5 -69z" />
<glyph unicode=":" horiz-adv-x="364" d="M0 0v246h246v-246h-246zM0 561v246h246v-246h-246z" />
<glyph unicode=";" horiz-adv-x="389" d="M-96 -238q29 0 47 32t29.5 80t15.5 106.5t5 111.5t0 95t-1 59h246v-246q0 -72 -26.5 -134.5t-74 -108.5t-110 -72.5t-131.5 -26.5v104zM0 561v246h246v-246h-246z" />
<glyph unicode="&#x3c;" horiz-adv-x="1290" d="M0 553q0 90 43 164q45 76 123 119l510 286h495l-886 -497q-20 -12 -33 -31q-8 -14 -8 -41t8 -41q14 -20 33 -29l858 -483h-496l-481 270q-78 43 -123 119q-43 74 -43 164z" />
<glyph unicode="=" horiz-adv-x="933" d="M0 100v248h807v-248h-807zM0 461v246h807v-246h-807z" />
<glyph unicode="&#x3e;" horiz-adv-x="1290" d="M0 1122h496l510 -286q78 -43 122 -119q43 -74 43 -164t-43 -164q-45 -76 -122 -119l-482 -270h-495l858 483q18 8 33 29q8 14 8 41t-8 41q-12 18 -33 31z" />
<glyph unicode="?" horiz-adv-x="1464" d="M0 881v245h963q82 0 155.5 -31.5t129 -86t87 -128t31.5 -157.5t-31.5 -157.5t-87 -128t-129.5 -86.5t-155 -32h-631v246h631q66 0 111.5 46t45.5 112t-46 112t-111 46h-963zM332 0v246h246v-246h-246z" />
<glyph unicode="@" horiz-adv-x="1781" d="M-10 403v719h246v-719q0 -66 46 -111.5t111 -45.5h1016v473q0 66 -46 112t-112 46h-481q-66 0 -112 -46.5t-46 -111.5q0 -66 46.5 -112t111.5 -46h492v-246h-492q-84 0 -156.5 32t-128 86t-87 128t-31.5 158t31.5 157.5t86 128t128 86t157.5 31.5h481q84 0 158 -31.5 t128 -86t86 -128t32 -157.5v-719h-1262q-84 0 -157.5 31.5t-128 86t-86 128t-31.5 157.5z" />
<glyph unicode="A" horiz-adv-x="1710" d="M0 0v723q0 84 31.5 157.5t86 129t128 87t157.5 31.5h783q84 0 157.5 -31.5t128 -87t86 -129t31.5 -157.5v-723h-246v270h-1097v-270h-246zM246 518h1097v205q0 66 -46 112t-111 46h-783q-66 0 -111.5 -46.5t-45.5 -111.5v-205z" />
<glyph unicode="B" horiz-adv-x="1765" d="M0 0v1122h1343q111 0 191 -57t119 -141q32 -68 32 -146q0 -18 -2 -36q-9 -98 -77 -181q68 -82 77 -180q2 -18 2 -36q0 -77 -32 -146q-39 -84 -119 -141.5t-191 -57.5h-1343zM246 246h1097q47 0 71 29.5t24 66.5t-23.5 66.5t-71.5 29.5h-1097v-192zM246 684h1097 q47 0 71 29.5t24 66.5t-23.5 67t-71.5 30h-1097v-193z" />
<glyph unicode="C" horiz-adv-x="1748" d="M0 403v316q0 84 31.5 157.5t86 129t128 87t157.5 31.5l1262 -2v-245h-1262q-66 0 -111.5 -46.5t-45.5 -111.5v-316q0 -66 46 -111.5t111 -45.5h1262v-246h-1262q-84 0 -157.5 31.5t-128 86t-86 128t-31.5 157.5z" />
<glyph unicode="D" horiz-adv-x="1759" d="M0 0v1122l1262 2q84 0 157.5 -31.5t128 -87t86 -129t31.5 -157.5v-316q0 -84 -31.5 -157.5t-86 -128t-128 -86t-157.5 -31.5h-1262zM246 246h1016q66 0 111.5 46t45.5 111v316q0 66 -46 112t-111 46h-1016v-631z" />
<glyph unicode="E" horiz-adv-x="1742" d="M0 403v316q0 84 31.5 157.5t86 129t128 87t157.5 31.5l1262 -2v-245h-1262q-66 0 -111.5 -46.5t-45.5 -111.5v-33h1343v-248h-1343v-35q0 -66 46 -111.5t111 -45.5h1262v-246h-1262q-84 0 -157.5 31.5t-128 86t-86 128t-31.5 157.5z" />
<glyph unicode="F" horiz-adv-x="1433" d="M0 0v719q0 84 31.5 157.5t86 128t128 86t157.5 31.5h945v-245h-945q-66 0 -111.5 -46.5t-45.5 -111.5v-158h1102v-246h-1102v-315h-246z" />
<glyph unicode="G" horiz-adv-x="1822" d="M0 403v316q0 84 31.5 157.5t86 129t128 87t157.5 31.5h1262v-247h-1262q-66 0 -111.5 -46.5t-45.5 -111.5v-316q0 -66 46 -111.5t111 -45.5h887l144 190q-262 0 -519.5 1t-519.5 1v248q299 0 597 -1t597 -1q53 0 91 -28.5t56 -70.5q16 -35 16 -74q0 -9 -1 -17 q-4 -50 -35 -91l-305 -403h-1008q-84 0 -157.5 31.5t-128 86t-86 128t-31.5 157.5z" />
<glyph unicode="H" horiz-adv-x="1742" d="M0 0v1122h246v-444h1147v444h247v-1122h-247v432h-1147v-432h-246z" />
<glyph unicode="I" horiz-adv-x="372" d="M0 0v1122h246v-1122h-246z" />
<glyph unicode="J" horiz-adv-x="983" d="M0 0v246h455q66 0 111.5 46t45.5 111v719h246v-719q0 -84 -31.5 -157.5t-86 -128t-128 -86t-157.5 -31.5h-455z" />
<glyph unicode="K" horiz-adv-x="1718" d="M0 0v1122h246v-438h600l440 438h344l-561 -561l561 -561h-344l-440 440h-600v-440h-246z" />
<glyph unicode="L" horiz-adv-x="1472" d="M0 403v719h246v-719q0 -66 46 -111.5t111 -45.5h934v-246h-934q-84 0 -157.5 31.5t-128 86t-86 128t-31.5 157.5z" />
<glyph unicode="M" horiz-adv-x="2154" d="M0 0v991q0 55 30 96q32 41 76 57q29 11 59 11q17 0 35 -3q50 -9 87 -52l735 -848l735 848q37 43 87 52q18 3 35 3q31 -1 59 -11q44 -16 75 -56.5t31 -96.5v-991h-244v780l-655 -755q-25 -29 -57.5 -43.5t-66.5 -14.5t-65.5 14.5t-56.5 43.5l-655 755v-780h-244z" />
<glyph unicode="N" horiz-adv-x="1640" d="M0 0v985q0 51 26.5 90t66.5 57q34 16 73 16h13q46 -3 85 -36l1004 -807v817h243v-985q0 -51 -26.5 -89t-66.5 -58q-35 -17 -75 -16h-12q-47 3 -86 36l-1001 809v-819h-244z" />
<glyph unicode="O" horiz-adv-x="2004" d="M-2 561q0 117 44 219.5t121 178t178 119.5t218 44h838q117 0 219 -44t179 -119.5t121 -178t44 -219.5t-44 -218t-121 -178t-179.5 -121t-218.5 -44h-838q-117 0 -218 44t-178 121t-121 178t-44 218zM244 561q0 -66 24.5 -123t67.5 -100t100.5 -67.5t122.5 -24.5h838 q66 0 123 24.5t100 67.5t67.5 100.5t24.5 122.5q0 66 -24.5 123t-67.5 100t-100.5 68t-122.5 25h-838q-66 0 -123 -25t-100 -68t-67.5 -100t-24.5 -123z" />
<glyph unicode="P" horiz-adv-x="1751" d="M0 0v1122l1262 2q84 0 157.5 -31.5t128 -87t86 -129t31.5 -157.5v-133q0 -84 -31.5 -157t-86 -128t-128 -87t-157.5 -32h-1016v-182h-246zM246 430h1016q66 0 111.5 45t45.5 111v133q0 66 -46 112t-111 46h-1016v-447z" />
<glyph unicode="Q" horiz-adv-x="2035" d="M0 561q0 117 44 219.5t121 178t178 119.5t218 44h838q117 0 219 -44t179 -119.5t121 -178t44 -219.5t-44 -218t-121 -178t-179 -121t-219 -44h-125q-66 0 -112 -46t-46 -112h-246q0 84 32 158t86 128t128 86t158 32h125q66 0 123 24.5t100 67.5t67.5 100.5t24.5 122.5 q0 66 -24.5 123t-67.5 100t-100.5 68t-122.5 25h-838q-66 0 -123 -25t-100 -68t-67.5 -100t-24.5 -123t24.5 -123t67.5 -100t100.5 -67.5t122.5 -24.5h289q-102 -104 -141 -246h-148q-117 0 -218 44t-178 121t-121 178t-44 218z" />
<glyph unicode="R" horiz-adv-x="1718" d="M0 0v1122l1262 2q84 0 157.5 -31.5t128 -87t86 -129t31.5 -157.5t-31.5 -158t-86 -128t-128 -86t-157.5 -32h-144l535 -315h-477l-697 412q-27 14 -35 39.5t-1.5 50t26.5 42t51 17.5h742q66 0 111.5 46t45.5 112t-46 112t-111 46h-1016v-877h-246z" />
<glyph unicode="S" horiz-adv-x="1662" d="M0 0v244h905l-405 504q-44 56 -50 122q-1 11 -1 22q0 54 23 100q28 56 82 94t128 38h903v-243h-880l403 -504q45 -57 50 -123q1 -10 1 -21q-1 -54 -23 -101q-26 -56 -80.5 -94t-127.5 -38h-928z" />
<glyph unicode="T" horiz-adv-x="1552" d="M0 877v245h1454v-245h-592v-877h-270v877h-592z" />
<glyph unicode="U" d="M0 403v723h246v-723q0 -66 46 -111.5t111 -45.5h783q66 0 110.5 46t44.5 111v723h248v-723q0 -84 -31.5 -157.5t-87 -128t-129 -86t-155.5 -31.5h-783q-84 0 -157.5 31.5t-128 86t-86 128t-31.5 157.5z" />
<glyph unicode="V" horiz-adv-x="1751" d="M0 1122h279l497 -886q25 -41 72 -42h2q45 0 70 42l497 886h279l-566 -1005q-47 -84 -123.5 -125t-159.5 -41t-160 41t-122 125z" />
<glyph unicode="W" horiz-adv-x="2605" d="M0 1122h279l497 -886q25 -41 72 -41t72 41l213 380l-285 506h278l146 -258l145 258h279l-285 -506l215 -380q12 -20 30.5 -30.5t39 -10.5t40 10t31.5 31l498 886h279l-566 -1005q-47 -84 -122.5 -125t-158.5 -41t-160 41t-124 125l-141 252l-142 -252 q-47 -84 -123.5 -125t-159.5 -41t-160 41t-122 125z" />
<glyph unicode="X" horiz-adv-x="1972" d="M0 1126h344l444 -444h316l444 444h344l-567 -565l561 -561h-344l-438 438h-316l-438 -438h-344l561 561z" />
<glyph unicode="Y" horiz-adv-x="1798" d="M0 1126h344l393 -393h234l395 393h344l-580 -577q-33 -35 -69.5 -47.5t-83.5 -12.5v-489h-246v489q-47 0 -83 12.5t-70 47.5z" />
<glyph unicode="Z" horiz-adv-x="1751" d="M3 56.5q-7 23.5 0 49t32 41.5q262 182 521 363.5t521 366.5h-1052v245h1572q29 0 49.5 -16t27.5 -40t0 -49.5t-32 -41.5q-262 -182 -521 -363.5t-521 -365.5h1061v-246h-1581q-29 0 -49.5 16.5t-27.5 40z" />
<glyph unicode="[" horiz-adv-x="665" d="M0 -342v1468h467v-245h-221v-977h221v-246h-221h-246z" />
<glyph unicode="\" horiz-adv-x="1583" d="M0 1126h344l1126 -1126h-344l-485 485z" />
<glyph unicode="]" horiz-adv-x="657" d="M0 -96h221v977h-221v245h467v-1468h-246h-221v246z" />
<glyph unicode="^" horiz-adv-x="1226" d="M0 520l276 494q47 82 124 124t160 42t159 -42t123 -124l278 -494h-278l-211 375q-12 20 -31.5 31.5t-40 11.5t-39 -11.5t-31.5 -31.5l-210 -375h-279z" />
<glyph unicode="_" horiz-adv-x="1339" d="M0 0h1174v-123h-1174v123z" />
<glyph unicode="`" horiz-adv-x="522" d="M8 1135h248l139 -224h-248z" />
<glyph unicode="a" horiz-adv-x="1513" d="M0 403q0 84 31.5 158t86 128t128 86t157.5 32h633q84 0 158 -32t128 -86t86 -128t32 -158v-403h-246v403q0 66 -46 112t-112 46h-633q-66 0 -111.5 -46t-45.5 -112t46 -111.5t111 -45.5h644v-246h-644q-84 0 -157.5 31.5t-128 86t-86 128t-31.5 157.5z" />
<glyph unicode="b" horiz-adv-x="1492" d="M0 403v652h246v-652q0 -66 46 -111.5t111 -45.5h633q66 0 112 46t46 111q0 66 -46 112t-112 46h-643v246h643q84 0 158 -32t128 -86t86 -128t32 -158t-32 -157.5t-86 -128t-128 -86t-158 -31.5h-633q-84 0 -157.5 31.5t-128 86t-86 128t-31.5 157.5z" />
<glyph unicode="c" horiz-adv-x="1429" d="M0 403q0 84 31.5 158t86 128t128 86t157.5 32h951v-246h-951q-66 0 -111.5 -46t-45.5 -112t46 -111.5t111 -45.5h951v-246h-951q-84 0 -157.5 31.5t-128 86t-86 128t-31.5 157.5z" />
<glyph unicode="d" horiz-adv-x="1568" d="M0 403q0 84 31.5 158t86 128t128 86t157.5 32h644v-246h-644q-66 0 -111.5 -46t-45.5 -112t46 -111.5t111 -45.5h633q66 0 112 46t46 111v652h246v-652q0 -84 -32 -157.5t-86 -128t-128 -86t-158 -31.5h-633q-84 0 -157.5 31.5t-128 86t-86 128t-31.5 157.5z" />
<glyph unicode="e" horiz-adv-x="1449" d="M0 403q0 84 31.5 158t86 128t128 86t157.5 32h801q51 0 90 -27q40 -26 58 -66q16 -34 15 -74v-13q-3 -47 -36 -86l-235 -295h258v-246h-951q-84 0 -157.5 31.5t-128 86t-86 128t-31.5 157.5zM246 403q0 -66 46 -111.5t111 -45.5h390l256 321h-646q-33 0 -61.5 -13 t-50 -35.5t-33.5 -52.5t-12 -63z" />
<glyph unicode="f" horiz-adv-x="1353" d="M0 -248v651q0 84 31.5 158t86 128t128 86t157.5 32h814v-246h-814q-66 0 -111.5 -46t-45.5 -112v-133h971v-245h-971v-273h-246z" />
<glyph unicode="g" horiz-adv-x="1583" d="M0 403q0 84 31.5 158t86 128t128 86t157.5 32h633q84 0 158 -32t128 -86t86 -128t32 -158v-403q0 -72 -27 -134.5t-74 -108.5t-109.5 -72.5t-131.5 -26.5v246q41 0 68.5 27.5t27.5 68.5v403q0 66 -46 112t-112 46h-633q-66 0 -111.5 -46t-45.5 -112t46 -111.5t111 -45.5 h644v-246h-644q-84 0 -157.5 31.5t-128 86t-86 128t-31.5 157.5z" />
<glyph unicode="h" horiz-adv-x="1492" d="M0 0v1055h246v-248h1003q53 0 92 -28.5t57 -70.5q15 -35 16 -74q0 -10 -1 -18q-4 -50 -35 -90l-403 -526h-307l426 561h-848v-561h-246z" />
<glyph unicode="i" horiz-adv-x="362" d="M0 0v807h246v-807h-246zM0 911v144h246v-144h-246z" />
<glyph unicode="j" horiz-adv-x="555" d="M0 0q66 0 112 46t46 112v649h245v-649q0 -84 -31.5 -158t-87 -129t-129 -87t-155.5 -32v248zM158 911v144h245v-144h-245z" />
<glyph unicode="k" horiz-adv-x="1323" d="M0 0v1055h246v-531h428l282 283h344l-405 -404l405 -403h-344l-282 283h-428v-283h-246z" />
<glyph unicode="l" horiz-adv-x="405" d="M43 0v1055h246v-1055h-246z" />
<glyph unicode="m" horiz-adv-x="2111" d="M0 0v403q0 84 31.5 158t86 128t128 86t157.5 32h318q82 0 157.5 -27.5t135.5 -85.5q55 53 126.5 83t153.5 30h330q84 0 157.5 -32t128 -86t86.5 -128t32 -158v-403h-246v403q0 74 -50.5 116t-119.5 42h-318q-66 0 -111.5 -46t-45.5 -112v-403h-246v403q0 74 -50 116 t-120 42h-318q-66 0 -111.5 -46t-45.5 -112v-403h-246z" />
<glyph unicode="n" horiz-adv-x="1470" d="M0 0v403q0 84 31.5 158t86 128t128 86t157.5 32h547q82 0 156 -32t129 -86t87 -128t32 -158v-403h-248v403q0 66 -45 112t-111 46h-547q-66 0 -111.5 -46t-45.5 -112v-403h-246z" />
<glyph unicode="o" horiz-adv-x="1576" d="M0 403q0 84 31.5 158t86 128t128 86t157.5 32h678q84 0 158 -32t128 -86t86 -128t32 -158t-32 -157.5t-86 -128t-128 -86t-158 -31.5h-678q-84 0 -157.5 31.5t-128 86t-86 128t-31.5 157.5zM246 403q0 -66 46 -111.5t111 -45.5h678q66 0 112 46t46 111q0 66 -46 112 t-112 46h-678q-66 0 -111.5 -46t-45.5 -112z" />
<glyph unicode="p" horiz-adv-x="1492" d="M0 -248v651q0 84 31.5 158t86 128t128 86t157.5 32h633q84 0 158 -32t128 -86t86 -128t32 -158t-32 -157.5t-86 -128t-128 -86t-158 -31.5h-643v246h643q66 0 112 46t46 111q0 66 -46 112t-112 46h-633q-66 0 -111.5 -46t-45.5 -112v-651h-246z" />
<glyph unicode="q" horiz-adv-x="1536" d="M0 403q0 84 31.5 158t86 128t128 86t157.5 32h633q84 0 158 -32t128 -86t86 -128t32 -158v-651h-246v651q0 66 -46 112t-112 46h-633q-66 0 -111.5 -46t-45.5 -112t46 -111.5t111 -45.5h644v-246h-644q-84 0 -157.5 31.5t-128 86t-86 128t-31.5 157.5z" />
<glyph unicode="r" horiz-adv-x="894" d="M0 0v403q0 84 31.5 158t86 128t128 86t157.5 32h441v-246h-441q-66 0 -111.5 -46t-45.5 -112v-403h-246z" />
<glyph unicode="s" horiz-adv-x="1429" d="M0 0v240h682l-242 301q-33 41 -37 87q-1 8 -1 15q0 37 16 71q20 40 59 66.5t90 26.5h807v-240h-651l242 -301q33 -41 36 -87v-13q1 -39 -15 -73q-18 -40 -57.5 -66.5t-90.5 -26.5h-838z" />
<glyph unicode="t" horiz-adv-x="1087" d="M0 403v652h246v-248h653v-246h-653v-158q0 -66 46 -111.5t111 -45.5h623v-246h-623q-84 0 -157.5 31.5t-128 86t-86 128t-31.5 157.5z" />
<glyph unicode="u" horiz-adv-x="1323" d="M0 403v404h246v-404q0 -66 46 -111.5t111 -45.5h433q66 0 110.5 46t44.5 111v404h248v-404q0 -84 -31.5 -157.5t-87 -128t-129 -86t-155.5 -31.5h-433q-84 0 -157.5 31.5t-128 86t-86 128t-31.5 157.5z" />
<glyph unicode="v" horiz-adv-x="1599" d="M0 807h301l410 -547q25 -35 64.5 -35t64.5 35l409 547h301l-516 -692q-49 -66 -117.5 -98.5t-141.5 -32.5t-141.5 32.5t-117.5 98.5z" />
<glyph unicode="w" horiz-adv-x="2068" d="M0 807h281l315 -539q12 -20 30.5 -30.5t39 -10.5t39 10.5t30.5 30.5l135 232l-180 307h281l41 -68l39 68h280l-180 -307l135 -232q25 -41 71 -41t70 41l314 539h282l-387 -662q-47 -82 -123.5 -121.5t-157.5 -39.5t-157 41t-121 120l-65 113l-66 -113 q-47 -80 -122.5 -120.5t-157.5 -40.5t-158 41t-123 120z" />
<glyph unicode="x" horiz-adv-x="1632" d="M0 0l403 403l-403 404h344l283 -283h260l282 283h344l-403 -404l403 -403h-344l-282 283h-260l-283 -283h-344z" />
<glyph unicode="y" horiz-adv-x="1515" d="M0 807h281l305 -524q25 -39 71 -39h209l330 563h281l-641 -1100h-281l170 293h-68q-88 0 -161.5 42t-118.5 120z" />
<glyph unicode="z" horiz-adv-x="1302" d="M2 575v228h1137q31 0 50 -16.5t27.5 -40t1 -49t-31.5 -42.5q-156 -109 -310.5 -216t-310.5 -216h621v-223h-1106q-29 0 -49.5 16.5t-27.5 40t0 49t32 41.5l612 428h-645z" />
<glyph unicode="{" horiz-adv-x="569" d="M0 352v105q23 0 38 18.5t26.5 50t17.5 71.5t10 83q2 39 2 76t2 71.5t10.5 69.5t28.5 72q43 82 124 132t179 50v-104q-39 0 -58.5 -53.5t-29.5 -127.5q-8 -61 -6 -125.5t-10 -122.5q-16 -68 -55 -124t-97 -91q53 -33 90 -83t56 -109q8 -31 12 -68t5 -74.5t2 -75.5t5 -73 q10 -66 30.5 -112t55.5 -46v-104q-117 0 -206 67.5t-121 174.5q-8 27 -12.5 61.5t-5.5 72.5t-2 74.5t-5 67.5q-8 72 -28.5 124t-57.5 52z" />
<glyph unicode="|" horiz-adv-x="276" d="M0 -342v1468h123v-1468h-123z" />
<glyph unicode="}" horiz-adv-x="577" d="M0 -238q35 0 55.5 46.5t30.5 111.5q8 70 7 148.5t18 142.5q18 59 55 109.5t90 82.5q-57 35 -96 91.5t-56 123.5q-12 57 -10 122t-6 126q-10 74 -29.5 127.5t-58.5 53.5v104q98 0 179 -50t124 -132q20 -37 28.5 -72t10.5 -69.5t1 -71.5t3 -76q4 -43 10 -83t17.5 -71.5 t27 -50t37.5 -18.5v-105q-37 0 -57.5 -52t-28.5 -124q-4 -31 -5 -67.5t-3 -74.5t-5 -73t-11 -61q-33 -106 -122 -174t-206 -68v104z" />
<glyph unicode="~" horiz-adv-x="1157" d="M25 643l102 21q4 -23 27.5 -35.5t58.5 -16.5t79 -2t89 8q72 8 141.5 22.5t141.5 29.5q70 14 133 12t115.5 -23.5t88 -65.5t48.5 -114l-103 -20q-4 23 -27.5 35t-58.5 16t-78 2t-88 -8q-72 -8 -142.5 -22.5t-139.5 -28.5q-70 -14 -134.5 -12.5t-115.5 23t-87 65.5t-50 114 z" />
<glyph unicode="&#xa1;" horiz-adv-x="403" d="M0 0v807h246v-807h-246zM0 881v245h246v-245h-246z" />
<glyph unicode="&#xa2;" horiz-adv-x="1429" d="M0 403q0 84 31.5 158t86 128t128 86t157.5 32h951v-246h-951q-66 0 -111.5 -46t-45.5 -112t46 -111.5t111 -45.5h951v-246h-951q-84 0 -157.5 31.5t-128 86t-86 128t-31.5 157.5zM653 -342v1468h123v-1468h-123z" />
<glyph unicode="&#xa3;" horiz-adv-x="1552" d="M0 494v120h244v115q0 84 31.5 158t86 128t128 86t157.5 32h318q84 0 157.5 -32t128 -86t86 -128t31.5 -158h-246q0 66 -46 112t-111 46h-318q-66 0 -112 -46t-46 -112v-115h244v-120h-244v-254h965v-240h-1292v240h82v254h-244z" />
<glyph unicode="&#xa4;" />
<glyph unicode="&#xa5;" horiz-adv-x="1798" d="M12 1126h344l394 -393h233l395 393h344l-542 -540h96v-123h-287v-141h287v-123h-287v-199h-246v199h-284v123h284v141h-284v123h94z" />
<glyph unicode="&#xa6;" horiz-adv-x="299" d="M0 207h123v-549h-123v549zM0 580v548h123v-548h-123z" />
<glyph unicode="&#xa8;" d="M418 911v144h246v-144h-246zM821 911v144h248v-144h-248z" />
<glyph unicode="&#xab;" horiz-adv-x="1388" d="M0 560q0 83 41 159t125 123l493 278v-278l-374 -211q-23 -12 -33 -30.5t-10 -40t10 -40t33 -31.5l374 -210v-279l-493 279q-84 45 -125 121.5t-41 159.5zM631 560q0 83 41 159t125 123l493 278v-278l-375 -211q-23 -12 -33 -30.5t-10 -40t10.5 -40t32.5 -31.5l375 -210 v-279l-493 279q-84 45 -125 121.5t-41 159.5z" />
<glyph unicode="&#xad;" horiz-adv-x="933" d="M0 281v245h807v-245h-807z" />
<glyph unicode="&#xb0;" horiz-adv-x="657" d="M2 1157q0 57 21.5 108.5t59.5 89.5t88.5 59.5t107.5 21.5t108 -21.5t89 -59.5t59.5 -89.5t21.5 -108.5t-21.5 -107.5t-59.5 -88t-89 -59t-108 -21.5t-107.5 21.5t-88.5 59t-59.5 88t-21.5 107.5zM154 1157q0 -53 36.5 -89t88.5 -36q53 0 90 36t37 89t-37 89t-90 36 q-51 0 -88 -36t-37 -89z" />
<glyph unicode="&#xb4;" horiz-adv-x="499" d="M61 911l140 224h248l-140 -224h-248z" />
<glyph unicode="&#xb5;" horiz-adv-x="1372" d="M0 -266v669v406h246v-406q0 -66 46 -111.5t111 -45.5h433q66 0 110.5 46t44.5 111v406h248v-406v-477h-248v105q-72 -31 -155 -31h-433q-84 0 -157 31v-297h-246z" />
<glyph unicode="&#xbb;" horiz-adv-x="1404" d="M2 0v279l375 210q20 12 31.5 31t11.5 40.5t-11.5 39.5t-31.5 31l-375 211v278l494 -278q82 -47 124 -123t42 -159t-42 -159.5t-124 -121.5zM633 0v279l375 210q20 12 31.5 31t11.5 40.5t-11.5 39.5t-31.5 31l-375 211v278l493 -278q82 -47 124 -123t42 -159t-42 -159.5 t-124 -121.5z" />
<glyph unicode="&#xbf;" horiz-adv-x="1464" d="M2 403q0 84 32 158t87 128t128 86t157 32h630v-246h-630q-66 0 -112 -46t-46 -112t46 -111.5t112 -45.5h962v-246h-962q-84 0 -157 31.5t-128 86t-87 128t-32 157.5zM791 881v245h245v-245h-245z" />
<glyph unicode="&#xc0;" horiz-adv-x="1710" d="M0 0v723q0 84 31.5 157.5t86 128t128 86t157.5 31.5h783q82 0 155.5 -31.5t129 -86t87 -128t31.5 -157.5v-723h-248v270h-1095v-270h-246zM246 516h1095v207q0 66 -45 112t-110 46h-783q-66 0 -111.5 -46.5t-45.5 -111.5v-207zM545 1454h246l139 -223h-246z" />
<glyph unicode="&#xc1;" horiz-adv-x="1710" d="M0 0v723q0 84 31.5 157.5t86 128t128 86t157.5 31.5h783q82 0 155.5 -31.5t129 -86t87 -128t31.5 -157.5v-723h-248v270h-1095v-270h-246zM246 516h1095v207q0 66 -45 112t-110 46h-783q-66 0 -111.5 -46.5t-45.5 -111.5v-207zM676 1231l139 223h246l-139 -223h-246z" />
<glyph unicode="&#xc2;" horiz-adv-x="1710" d="M0 0v723q0 84 31.5 157.5t86 128t128 86t157.5 31.5h783q82 0 155.5 -31.5t129 -86t87 -128t31.5 -157.5v-723h-248v270h-1095v-270h-246zM246 516h1095v207q0 66 -45 112t-110 46h-783q-66 0 -111.5 -46.5t-45.5 -111.5v-207zM471 1231l137 223h371l139 -223h-246 l-77 123l-78 -123h-246z" />
<glyph unicode="&#xc3;" horiz-adv-x="1710" d="M0 0v723q0 84 31.5 157.5t86 129t128 87t157.5 31.5h783q84 0 157.5 -31.5t128 -87t86 -129t31.5 -157.5v-723h-246v270h-1097v-270h-246zM246 518h1097v205q0 66 -46 112t-111 46h-783q-66 0 -111.5 -46.5t-45.5 -111.5v-205zM283 1415l102 21q4 -23 27.5 -35 t58.5 -16.5t78 -2.5t88 9q72 10 142.5 23t142.5 28q70 14 133 12t114.5 -23.5t87 -65.5t50.5 -114l-103 -20q-4 23 -27.5 35t-58.5 17t-78 3t-88 -8q-72 -10 -142.5 -24.5t-141.5 -28.5q-70 -14 -133.5 -12.5t-114.5 23t-87 66t-50 113.5z" />
<glyph unicode="&#xc4;" horiz-adv-x="1710" d="M0 0v723q0 84 31.5 157.5t86 128t128 86t157.5 31.5h783q82 0 155.5 -31.5t129 -86t87 -128t31.5 -157.5v-723h-248v270h-1095v-270h-246zM246 516h1095v207q0 66 -45 112t-110 46h-783q-66 0 -111.5 -46.5t-45.5 -111.5v-207zM469 1231v143h246v-143h-246zM872 1231v143 h248v-143h-248z" />
<glyph unicode="&#xc5;" horiz-adv-x="1710" d="M0 0v723q0 84 31.5 157.5t86 129t128 87t157.5 31.5h148q35 66 99.5 106t144.5 40q78 0 143.5 -40t99.5 -106h148q84 0 157.5 -31.5t128 -87t86 -129t31.5 -157.5v-723h-246v270h-1097v-270h-246zM246 518h1097v205q0 66 -46 112t-111 46h-139q-33 -72 -99.5 -117 t-152.5 -45t-153 45t-101 117h-138q-66 0 -111.5 -46.5t-45.5 -111.5v-205zM547 1123q0 -1 4 5q-4 -4 -4 -5zM670 995q0 -53 35.5 -89t89.5 -36q53 0 89 36t36 89t-36 89t-89 36t-89 -35.5t-36 -89.5zM1038 1128q4 -6 3 -5t-3 5zM1048 883q-1 0 3 4q-2 -4 -3 -4z" />
<glyph unicode="&#xc6;" horiz-adv-x="2293" d="M0 0l913 1055q63 70 154 69h160.5h208t222 -1t207 -1h163h86.5v-245h-893v-191h893v-248h-893v-35q0 -66 46 -111.5t111 -45.5h736v-246h-736q-84 0 -157.5 31.5t-128 87t-86 128t-31.5 156.5v351l-653 -754h-322z" />
<glyph unicode="&#xc7;" horiz-adv-x="1748" d="M0 408v315q0 84 31.5 157.5t86 129t128 87t157.5 31.5h1262v-247h-1262q-66 0 -111.5 -46.5t-45.5 -111.5v-315q0 -66 46 -112t111 -46h1262v-246h-631l-139 -223h-246l139 223h-385q-84 0 -157.5 32t-128 87t-86 128t-31.5 157z" />
<glyph unicode="&#xc8;" horiz-adv-x="1742" d="M0 403v316q0 84 31.5 157.5t86 128t128 86t157.5 31.5h1262v-245h-1262q-66 0 -111.5 -46.5t-45.5 -111.5v-35h1343v-246h-1343v-35q0 -66 46 -111.5t111 -45.5h1262v-246h-1262q-84 0 -157.5 31.5t-128 86t-86 128t-31.5 157.5zM573 1454h248l137 -223h-245z" />
<glyph unicode="&#xc9;" horiz-adv-x="1742" d="M0 403v316q0 84 31.5 157.5t86 128t128 86t157.5 31.5h1262v-245h-1262q-66 0 -111.5 -46.5t-45.5 -111.5v-35h1343v-246h-1343v-35q0 -66 46 -111.5t111 -45.5h1262v-246h-1262q-84 0 -157.5 31.5t-128 86t-86 128t-31.5 157.5zM705 1231l139 223h248l-140 -223h-247z " />
<glyph unicode="&#xca;" horiz-adv-x="1742" d="M0 403v316q0 84 31.5 157.5t86 128t128 86t157.5 31.5h1262v-245h-1262q-66 0 -111.5 -46.5t-45.5 -111.5v-35h1343v-246h-1343v-35q0 -66 46 -111.5t111 -45.5h1262v-246h-1262q-84 0 -157.5 31.5t-128 86t-86 128t-31.5 157.5zM508 1231l139 223h123h125h123l139 -223 h-248l-75 123l-78 -123h-248z" />
<glyph unicode="&#xcb;" horiz-adv-x="1742" d="M0 403v316q0 84 31.5 157.5t86 129t128 87t157.5 31.5l1262 -2v-245h-1262q-66 0 -111.5 -46.5t-45.5 -111.5v-33h1343v-248h-1343v-35q0 -66 46 -111.5t111 -45.5h1262v-246h-1262q-84 0 -157.5 31.5t-128 86t-86 128t-31.5 157.5zM539 1231v143h245v-143h-245z M942 1231v143h248v-143h-248z" />
<glyph unicode="&#xcc;" horiz-adv-x="493" d="M27 1454h245l140 -223h-246zM158 0v1122h248v-1122h-248z" />
<glyph unicode="&#xcd;" horiz-adv-x="399" d="M0 0v1122h246v-1122h-246zM0 1231l139 223h246l-139 -223h-246z" />
<glyph unicode="&#xce;" horiz-adv-x="673" d="M14 1231l140 223h368l140 -223h-246l-78 125l-78 -125h-246zM215 0v1122h246v-1122h-246z" />
<glyph unicode="&#xcf;" horiz-adv-x="653" d="M0 1231v143h246v-143h-246zM203 0v1122h246v-1122h-246zM403 1231v143h248v-143h-248z" />
<glyph unicode="&#xd1;" horiz-adv-x="1640" d="M0 0v987q0 37 15.5 67.5t40 53t57 34t69.5 7.5q43 -6 82 -35l1004 -809v819h243v-987q0 -51 -26.5 -89t-66.5 -56.5t-87 -15t-86 35.5l-1001 807v-819h-244zM244 1417l102 19q4 -23 27.5 -34t58.5 -16.5t78 -3.5t88 9q72 10 142.5 24.5t140.5 28.5q70 12 134 10 t115.5 -23.5t87 -64.5t50.5 -113l-103 -20q-4 23 -27.5 34t-58.5 16t-79 3t-89 -8q-72 -10 -141.5 -24.5t-140.5 -28.5q-70 -12 -133.5 -10t-115.5 23.5t-88 65.5t-48 113z" />
<glyph unicode="&#xd2;" horiz-adv-x="2004" d="M0 561q0 117 44 219.5t121 178t178 119.5t218 44h838q117 0 219 -44t179 -119.5t121 -178t44 -219.5t-44 -218t-121 -178t-179 -121t-219 -44h-838q-117 0 -218 44t-178 121t-121 178t-44 218zM246 561q0 -66 24.5 -123t67.5 -100t100.5 -67.5t122.5 -24.5h838 q66 0 123 24.5t100 67.5t67.5 100.5t24.5 122.5q0 66 -24.5 123t-67.5 100t-100.5 68t-122.5 25h-838q-66 0 -123 -25t-100 -68t-67.5 -100t-24.5 -123zM702 1454h248l140 -223h-248z" />
<glyph unicode="&#xd3;" horiz-adv-x="2004" d="M0 561q0 117 44 219.5t121 178t178 119.5t218 44h838q117 0 219 -44t179 -119.5t121 -178t44 -219.5t-44 -218t-121 -178t-179 -121t-219 -44h-838q-117 0 -218 44t-178 121t-121 178t-44 218zM246 561q0 -66 24.5 -123t67.5 -100t100.5 -67.5t122.5 -24.5h838 q66 0 123 24.5t100 67.5t67.5 100.5t24.5 122.5q0 66 -24.5 123t-67.5 100t-100.5 68t-122.5 25h-838q-66 0 -123 -25t-100 -68t-67.5 -100t-24.5 -123zM836 1231l139 223h246l-140 -223h-245z" />
<glyph unicode="&#xd4;" horiz-adv-x="2004" d="M0 561q0 117 44 219.5t121 178t178 119.5t218 44h838q117 0 219 -44t179 -119.5t121 -178t44 -219.5t-44 -218t-121 -178t-179 -121t-219 -44h-838q-117 0 -218 44t-178 121t-121 178t-44 218zM246 561q0 -66 24.5 -123t67.5 -100t100.5 -67.5t122.5 -24.5h838 q66 0 123 24.5t100 67.5t67.5 100.5t24.5 122.5q0 66 -24.5 123t-67.5 100t-100.5 68t-122.5 25h-838q-66 0 -123 -25t-100 -68t-67.5 -100t-24.5 -123zM657 1231l138 223h370l140 -223h-246l-78 125l-78 -125h-246z" />
<glyph unicode="&#xd5;" horiz-adv-x="2004" d="M0 561q0 117 44 219.5t121 178t178 119.5t218 44h838q117 0 219 -44t179 -119.5t121 -178t44 -219.5t-44 -218t-121 -178t-179 -121t-219 -44h-838q-117 0 -218 44t-178 121t-121 178t-44 218zM246 561q0 -66 24.5 -123t67.5 -100t100.5 -67.5t122.5 -24.5h838 q66 0 123 24.5t100 67.5t67.5 100.5t24.5 122.5q0 66 -24.5 123t-67.5 100t-100.5 68t-122.5 25h-838q-66 0 -123 -25t-100 -68t-67.5 -100t-24.5 -123zM469 1415l102 21q4 -23 28 -35t58.5 -16.5t77.5 -2.5t88 9q72 10 142.5 23t140.5 28q70 14 134.5 12t115.5 -23.5 t87 -65.5t50 -114l-102 -20q-4 23 -28 35t-58.5 17t-78.5 3t-89 -8q-72 -10 -141.5 -24.5t-141.5 -28.5q-70 -14 -133.5 -12.5t-115.5 23t-88 66t-48 113.5z" />
<glyph unicode="&#xd6;" horiz-adv-x="2004" d="M0 561q0 117 44 219.5t121 178t178 119.5t218 44h838q117 0 219 -44t179 -119.5t121 -178t44 -219.5t-44 -218t-121 -178t-179 -121t-219 -44h-838q-117 0 -218 44t-178 121t-121 178t-44 218zM246 561q0 -66 24.5 -123t67.5 -100t100.5 -67.5t122.5 -24.5h838 q66 0 123 24.5t100 67.5t67.5 100.5t24.5 122.5q0 66 -24.5 123t-67.5 100t-100.5 68t-122.5 25h-838q-66 0 -123 -25t-100 -68t-67.5 -100t-24.5 -123zM655 1231v143h246v-143h-246zM1059 1231v143h248v-143h-248z" />
<glyph unicode="&#xd7;" horiz-adv-x="1615" d="M0 0l403 403l-403 406h344l283 -283h262l282 283h342l-403 -406l403 -403h-342l-282 283h-262l-283 -283h-344z" />
<glyph unicode="&#xd8;" horiz-adv-x="2004" d="M0 561q0 117 44 219.5t121 178t178 119.5t218 44h838q117 0 219 -44t178 -119.5t120 -178t44 -219.5t-44 -218t-120 -178t-178 -121t-219 -44h-838q-117 0 -218 44t-178 121t-121 178t-44 218zM246 561q0 -66 24.5 -123t67.5 -100t100.5 -67.5t122.5 -24.5h101l391 631 h-492q-66 0 -123 -25t-100 -68t-67.5 -100t-24.5 -123zM907 246h492q66 0 123 24.5t100 67.5t67.5 100.5t24.5 122.5q0 66 -24.5 123t-67.5 100t-100.5 68t-122.5 25h-101l-272 -441z" />
<glyph unicode="&#xd9;" d="M0 403v725h246v-725q0 -66 46 -111.5t111 -45.5h783q66 0 111.5 46t45.5 111v725h246v-725q0 -84 -31.5 -156.5t-86 -128t-128 -87t-157.5 -31.5h-783q-84 0 -157.5 31.5t-128 86t-86 128t-31.5 157.5zM516 1454h248l139 -223h-248z" />
<glyph unicode="&#xda;" d="M0 403v725h246v-725q0 -66 46 -111.5t111 -45.5h783q66 0 111.5 46t45.5 111v725h246v-725q0 -84 -31.5 -156.5t-86 -128t-128 -87t-157.5 -31.5h-783q-84 0 -157.5 31.5t-128 86t-86 128t-31.5 157.5zM649 1231l139 223h246l-139 -223h-246z" />
<glyph unicode="&#xdb;" d="M0 403v725h246v-725q0 -66 46 -111.5t111 -45.5h783q66 0 111.5 46t45.5 111v725h246v-725q0 -84 -31.5 -156.5t-86 -128t-128 -87t-157.5 -31.5h-783q-84 0 -157.5 31.5t-128 86t-86 128t-31.5 157.5zM471 1231l139 223h369l139 -223h-246l-77 125l-78 -125h-246z" />
<glyph unicode="&#xdc;" d="M0 403v725h246v-725q0 -66 46 -111.5t111 -45.5h783q66 0 111.5 46t45.5 111v725h246v-725q0 -84 -31.5 -156.5t-86 -128t-128 -87t-157.5 -31.5h-783q-84 0 -157.5 31.5t-128 86t-86 128t-31.5 157.5zM469 1231v143h246v-143h-246zM874 1231v143h246v-143h-246z" />
<glyph unicode="&#xdd;" horiz-adv-x="1798" d="M-39 1128h344l395 -395h232l395 395h344l-577 -579q-35 -35 -71 -47.5t-83 -12.5v-489h-209l-39 489q-47 0 -83 12.5t-70 47.5zM664 1231l139 223h246l-140 -223h-245z" />
<glyph unicode="&#xdf;" horiz-adv-x="1751" d="M0 0v780q0 72 26.5 134.5t73.5 108.5t108.5 72.5t133.5 26.5h1001q70 0 132.5 -26.5t109.5 -72.5t74 -108.5t27 -134.5q0 -61 -21.5 -117.5t-58.5 -101.5q37 -45 58.5 -100t21.5 -119q0 -72 -27 -133.5t-74 -108.5t-109.5 -73.5t-132.5 -26.5h-944v246h944q39 0 67 27.5 t28 68.5t-28 68.5t-67 27.5h-944v246h944q39 0 67 27.5t28 68.5t-28 69t-67 28h-1001q-41 0 -68.5 -28t-27.5 -69v-780h-246z" />
<glyph unicode="&#xe0;" horiz-adv-x="1513" d="M0 403q0 84 31.5 158t86 129t128 87t157.5 32h633q84 0 158 -32t128 -87t86 -129t32 -158v-403h-246v403q0 66 -46 112t-112 46h-633q-66 0 -111.5 -46t-45.5 -112t46 -111.5t111 -45.5h644v-246h-644q-84 0 -157.5 31.5t-128 86t-86 128t-31.5 157.5zM500 1135h245 l140 -224h-248z" />
<glyph unicode="&#xe1;" horiz-adv-x="1513" d="M0 403q0 84 31.5 158t86 129t128 87t157.5 32h633q84 0 158 -32t128 -87t86 -129t32 -158v-403h-246v403q0 66 -46 112t-112 46h-633q-66 0 -111.5 -46t-45.5 -112t46 -111.5t111 -45.5h644v-246h-644q-84 0 -157.5 31.5t-128 86t-86 128t-31.5 157.5zM567 911l140 224 h245l-137 -224h-248z" />
<glyph unicode="&#xe2;" horiz-adv-x="1513" d="M0 403q0 84 31.5 158t86 129t128 87t157.5 32h633q84 0 158 -32t128 -87t86 -129t32 -158v-403h-246v403q0 66 -46 112t-112 46h-633q-66 0 -111.5 -46t-45.5 -112t46 -111.5t111 -45.5h644v-246h-644q-84 0 -157.5 31.5t-128 86t-86 128t-31.5 157.5zM395 911l140 224 h370l139 -224h-247l-76 125l-78 -125h-248z" />
<glyph unicode="&#xe3;" horiz-adv-x="1513" d="M0 403q0 84 31.5 158t86 129t128 87t157.5 32h633q84 0 158 -32t128 -87t86 -129t32 -158v-403h-246v403q0 66 -46 112t-112 46h-633q-66 0 -111.5 -46t-45.5 -112t46 -111.5t111 -45.5h644v-246h-644q-84 0 -157.5 31.5t-128 86t-86 128t-31.5 157.5zM209 1079l102 21 q4 -23 26.5 -35t57.5 -17.5t79 -3t89 8.5q72 10 141.5 24.5t141.5 28.5q70 14 134 12t115.5 -24.5t87.5 -65.5t50 -113l-103 -20q-4 23 -27.5 35t-58 16t-78.5 2t-89 -8q-72 -10 -141.5 -23.5t-141.5 -27.5q-70 -14 -134.5 -12t-115.5 23.5t-87 65.5t-48 113z" />
<glyph unicode="&#xe4;" horiz-adv-x="1513" d="M0 403q0 84 31.5 158t86 129t128 87t157.5 32h633q84 0 158 -32t128 -87t86 -129t32 -158v-403h-246v403q0 66 -46 112t-112 46h-633q-66 0 -111.5 -46t-45.5 -112t46 -111.5t111 -45.5h644v-246h-644q-84 0 -157.5 31.5t-128 86t-86 128t-31.5 157.5zM395 911v144h246 v-144h-246zM799 911v144h248v-144h-248z" />
<glyph unicode="&#xe5;" horiz-adv-x="1513" d="M0 403q0 84 31.5 158t86 129t128 87t157.5 32h633q84 0 158 -32t128 -87t86 -129t32 -158v-403h-246v403q0 66 -46 112t-112 46h-633q-66 0 -111.5 -46t-45.5 -112t46 -111.5t111 -45.5h644v-246h-644q-84 0 -157.5 31.5t-128 86t-86 128t-31.5 157.5zM442 1157 q0 57 21.5 108.5t59.5 89.5t89.5 59.5t108.5 21.5t107.5 -21.5t88 -59.5t59 -89.5t21.5 -108.5t-21.5 -107.5t-59 -88t-88 -59t-107.5 -21.5t-108.5 21.5t-89.5 59t-59.5 88t-21.5 107.5zM594 1157q0 -53 37 -89t90 -36t89 36t36 89t-36 89t-89 36t-90 -36t-37 -89z" />
<glyph unicode="&#xe6;" horiz-adv-x="2256" d="M0 403q0 84 31.5 158t86 129t128 87t157.5 32h758q201 0 399.5 -1t401.5 -1q51 0 90 -26.5t57.5 -66.5t15.5 -87t-36 -86l-236 -295h258v-246h-1079v403q0 66 -46 112t-112 46h-471q-66 0 -111.5 -46t-45.5 -112t46 -111.5t111 -45.5h482v-246h-482q-84 0 -156.5 31.5 t-128 86t-87 128t-31.5 157.5zM1243 567q35 -76 35 -164v-157h272l256 321h-563z" />
<glyph unicode="&#xe7;" horiz-adv-x="1429" d="M0 403q0 84 31.5 158t86 129t128 87t157.5 32h951v-248h-951q-66 0 -111.5 -46t-45.5 -112t46 -111.5t111 -45.5h951v-246h-455l-139 -225h-246l137 225h-248q-84 0 -157.5 31.5t-128 86t-86 128t-31.5 157.5z" />
<glyph unicode="&#xe8;" horiz-adv-x="1449" d="M0 403q0 84 31.5 158t86 129t128 87t157.5 32q203 0 402 -1t399 -1q51 0 90 -26.5t57.5 -66.5t15.5 -87t-34 -86l-237 -295h258v-246h-951q-84 0 -157.5 31.5t-128 87t-86 128t-31.5 156.5zM246 403q0 -66 46 -111.5t111 -45.5h390l14 20l242 301h-646q-33 0 -61.5 -13 t-50 -35.5t-33.5 -52.5t-12 -63zM430 1135h246l139 -224h-246z" />
<glyph unicode="&#xe9;" horiz-adv-x="1449" d="M0 403q0 84 31.5 158t86 129t128 87t157.5 32q203 0 402 -1t399 -1q47 0 88 -25q18 -12 33.5 -28.5t26.5 -38.5q23 -47 16 -90q-6 -45 -35 -84l-237 -295h258v-246h-951q-84 0 -157.5 31.5t-128 87t-86 128t-31.5 156.5zM246 403q0 -66 46 -111.5t111 -45.5h390l256 321 h-646q-33 0 -61.5 -13t-50 -35.5t-33.5 -52.5t-12 -63zM561 911l139 224h248l-139 -224h-248z" />
<glyph unicode="&#xea;" horiz-adv-x="1449" d="M0 403q0 84 31.5 158t86 129t128 87t157.5 32q203 0 402 -1t399 -1q51 0 90 -26.5t58.5 -66.5t15.5 -87t-35 -86l-237 -295h258v-246h-951q-84 0 -157.5 31.5t-128 86t-86 128t-31.5 157.5zM246 403q0 -66 46 -111.5t111 -45.5h390q6 12 14 20l242 301h-646 q-33 0 -61.5 -13t-50 -35.5t-33.5 -52.5t-12 -63zM360 911l140 224h368l140 -224h-246l-78 125l-78 -125h-246z" />
<glyph unicode="&#xeb;" horiz-adv-x="1449" d="M0 403q0 84 31.5 158t86 129t128 87t157.5 32q203 0 402 -1t399 -1q51 0 90 -26.5t57.5 -66.5t15.5 -87t-34 -86l-237 -295h258v-246h-951q-84 0 -157.5 31.5t-128 87t-86 128t-31.5 156.5zM246 403q0 -66 46 -111.5t111 -45.5h390q6 12 14 20l242 301h-646 q-33 0 -61.5 -13t-50 -35.5t-33.5 -52.5t-12 -63zM358 911v144h248v-144h-248zM764 911v144h246v-144h-246z" />
<glyph unicode="&#xec;" horiz-adv-x="446" d="M0 1135h246l139 -224h-246zM131 0v809h248v-809h-248z" />
<glyph unicode="&#xed;" horiz-adv-x="415" d="M0 0v809h246v-809h-246zM0 911l139 224h246l-139 -224h-246z" />
<glyph unicode="&#xee;" horiz-adv-x="663" d="M0 911l139 224h123h123h123l139 -224h-246l-77 125l-78 -125h-246zM201 0v809h245v-809h-245z" />
<glyph unicode="&#xef;" horiz-adv-x="677" d="M0 911v144h246v-144h-246zM203 0v809h246v-809h-246zM403 911v144h248v-144h-248z" />
<glyph unicode="&#xf1;" horiz-adv-x="1470" d="M0 0v403q0 84 31.5 158t86 129t128 87t157.5 32h547q82 0 156 -32t129 -87t87 -129t32 -158v-403h-246v403q0 66 -46 112t-112 46h-547q-66 0 -111.5 -46t-45.5 -112v-403h-246zM164 1079l102 21q4 -23 27.5 -35t58.5 -17.5t79 -3t89 8.5q72 10 141.5 24.5t141.5 28.5 q70 14 134 12t115.5 -24.5t87.5 -65.5t50 -113l-105 -20q-4 23 -26.5 35t-57 16t-78.5 2t-89 -8q-72 -10 -141.5 -23.5t-141.5 -27.5q-70 -14 -134.5 -12t-115.5 23.5t-87 65.5t-50 113z" />
<glyph unicode="&#xf2;" horiz-adv-x="1576" d="M0 403q0 84 31.5 158t86 129t128 87t157.5 32h678q84 0 158 -32t129 -87t87 -129t32 -158t-32 -157.5t-87 -128t-129 -86t-158 -31.5h-678q-84 0 -157.5 31.5t-128 87t-86 128t-31.5 156.5zM246 403q0 -66 46 -111.5t111 -45.5h678q66 0 112 46t46 111q0 66 -46 112 t-112 46h-678q-66 0 -111.5 -46t-45.5 -112zM438 1135h246l139 -224h-245z" />
<glyph unicode="&#xf3;" horiz-adv-x="1576" d="M0 403q0 84 31.5 158t86 129t128 87t157.5 32h678q84 0 158 -32t129 -87t87 -129t32 -158t-32 -157.5t-87 -128t-129 -86t-158 -31.5h-678q-84 0 -157.5 31.5t-128 87t-86 128t-31.5 156.5zM246 403q0 -66 46 -111.5t111 -45.5h678q66 0 112 46t46 111q0 66 -46 112 t-112 46h-678q-66 0 -111.5 -46t-45.5 -112zM569 911l140 224h247l-139 -224h-248z" />
<glyph unicode="&#xf4;" horiz-adv-x="1576" d="M0 403q0 84 31.5 158t86 129t128 87t157.5 32h678q84 0 158 -32t129 -87t87 -129t32 -158t-32 -157.5t-87 -128t-129 -86t-158 -31.5h-678q-84 0 -157.5 31.5t-128 87t-86 128t-31.5 156.5zM246 403q0 -66 46 -111.5t111 -45.5h678q66 0 112 46t46 111q0 66 -46 112 t-112 46h-678q-66 0 -111.5 -46t-45.5 -112zM418 911l139 224h371l139 -224h-246l-78 125l-77 -125h-248z" />
<glyph unicode="&#xf5;" horiz-adv-x="1576" d="M0 403q0 84 31.5 158t86 129t128 87t157.5 32h678q84 0 158 -32t129 -87t87 -129t32 -158t-32 -157.5t-87 -128t-129 -86t-158 -31.5h-678q-84 0 -157.5 31.5t-128 87t-86 128t-31.5 156.5zM231 1079l103 21q4 -23 26.5 -35t57.5 -17.5t79 -3t89 8.5q72 10 142.5 24.5 t139.5 28.5q70 14 134.5 12t115.5 -24.5t87 -65.5t50 -113l-102 -20q-4 23 -27.5 35t-58.5 16t-79 2t-89 -8q-72 -10 -141.5 -23.5t-141.5 -27.5q-70 -14 -133 -12t-115.5 23.5t-88 65.5t-48.5 113zM246 403q0 -66 46 -111.5t111 -45.5h678q66 0 112 46t46 111q0 66 -46 112 t-112 46h-678q-66 0 -111.5 -46t-45.5 -112z" />
<glyph unicode="&#xf6;" horiz-adv-x="1576" d="M0 403q0 84 31.5 158t86 129t128 87t157.5 32h678q84 0 158 -32t129 -87t87 -129t32 -158t-32 -157.5t-87 -128t-129 -86t-158 -31.5h-678q-84 0 -157.5 31.5t-128 87t-86 128t-31.5 156.5zM246 403q0 -66 46 -111.5t111 -45.5h678q66 0 112 46t46 111q0 66 -46 112 t-112 46h-678q-66 0 -111.5 -46t-45.5 -112zM408 911v144h245v-144h-245zM811 911v144h248v-144h-248z" />
<glyph unicode="&#xf7;" horiz-adv-x="905" d="M-6 281v245h104h176h246h221h62v-245h-55h-228h-246h-170h-110zM274 0v168h246v-168h-246zM274 641v168h246v-168h-246z" />
<glyph unicode="&#xf8;" horiz-adv-x="1546" d="M0 403q0 84 31.5 158t86 129t128 87t157.5 32h678q84 0 158 -32t129 -87t87 -129t32 -158t-32 -157.5t-87 -128t-129 -86t-158 -31.5h-678q-84 0 -157.5 31.5t-128 87t-86 128t-31.5 156.5zM246 403q0 -66 46 -111.5t111 -45.5h119l195 315h-314q-66 0 -111.5 -46 t-45.5 -112zM768 246h313q66 0 112 46t46 111q0 66 -46 112t-112 46h-116l-72 -112z" />
<glyph unicode="&#xf9;" horiz-adv-x="1323" d="M0 403v406h246v-406q0 -66 46 -111.5t111 -45.5h433q66 0 110.5 46t44.5 111v406h248v-406q0 -84 -31.5 -157.5t-87 -128t-129 -86t-155.5 -31.5h-433q-84 0 -157.5 31.5t-128 86t-86 128t-31.5 157.5zM319 1135h248l140 -224h-248z" />
<glyph unicode="&#xfa;" horiz-adv-x="1323" d="M0 403v406h246v-406q0 -66 46 -111.5t111 -45.5h433q66 0 110.5 46t44.5 111v406h248v-406q0 -84 -31.5 -157.5t-87 -128t-129 -86t-155.5 -31.5h-433q-84 0 -157.5 31.5t-128 86t-86 128t-31.5 157.5zM453 911l139 224h246l-140 -224h-245z" />
<glyph unicode="&#xfb;" horiz-adv-x="1323" d="M0 403v406h246v-406q0 -66 46 -111.5t111 -45.5h433q66 0 110.5 46t44.5 111v406h248v-406q0 -84 -31.5 -157.5t-87 -128t-129 -86t-155.5 -31.5h-433q-84 0 -157.5 31.5t-128 86t-86 128t-31.5 157.5zM295 911l139 224h371l139 -224h-248l-78 125l-75 -125h-248z" />
<glyph unicode="&#xfc;" horiz-adv-x="1323" d="M0 403v406h246v-406q0 -66 46 -111.5t111 -45.5h433q66 0 110.5 46t44.5 111v406h248v-406q0 -84 -31.5 -157.5t-87 -128t-129 -86t-155.5 -31.5h-433q-84 0 -157.5 31.5t-128 86t-86 128t-31.5 157.5zM283 911v144h247v-144h-247zM688 911v144h246v-144h-246z" />
<glyph unicode="&#xfd;" horiz-adv-x="1515" d="M0 809h281l315 -541q23 -41 70 -41h200l338 582h281l-641 -1102h-281l162 277h-59q-88 0 -162 43t-119 118zM594 911l139 224h246l-137 -224h-248z" />
<glyph unicode="&#xff;" horiz-adv-x="1515" d="M0 809h281l315 -541q23 -41 70 -41h200l338 582h281l-641 -1102h-281l162 277h-59q-88 0 -162 43t-119 118zM418 911v144h246v-144h-246zM821 911v144h248v-144h-248z" />
<glyph unicode="&#x2000;" horiz-adv-x="727" />
<glyph unicode="&#x2001;" horiz-adv-x="1454" />
<glyph unicode="&#x2002;" horiz-adv-x="727" />
<glyph unicode="&#x2003;" horiz-adv-x="1454" />
<glyph unicode="&#x2004;" horiz-adv-x="484" />
<glyph unicode="&#x2005;" horiz-adv-x="363" />
<glyph unicode="&#x2006;" horiz-adv-x="242" />
<glyph unicode="&#x2007;" horiz-adv-x="242" />
<glyph unicode="&#x2008;" horiz-adv-x="181" />
<glyph unicode="&#x2009;" horiz-adv-x="290" />
<glyph unicode="&#x200a;" horiz-adv-x="80" />
<glyph unicode="&#x2010;" horiz-adv-x="933" d="M0 281v245h807v-245h-807z" />
<glyph unicode="&#x2011;" horiz-adv-x="933" d="M0 281v245h807v-245h-807z" />
<glyph unicode="&#x2012;" horiz-adv-x="933" d="M0 281v245h807v-245h-807z" />
<glyph unicode="&#x2013;" horiz-adv-x="1150" d="M0 281v245h1024v-245h-1024z" />
<glyph unicode="&#x2014;" horiz-adv-x="2174" d="M0 281v245h2048v-245h-2048z" />
<glyph unicode="&#x202f;" horiz-adv-x="290" />
<glyph unicode="&#x205f;" horiz-adv-x="363" />
<glyph unicode="&#x25fc;" horiz-adv-x="808" d="M0 0v809h809v-809h-809z" />
</font>
</defs>
</svg>
